<svg width="24" height="25" viewBox="0 0 24 25" fill="none" xmlns="http://www.w3.org/2000/svg">
<g clip-path="url(#clip0_2_2285)">
<mask id="mask0_2_2285" style="mask-type:alpha" maskUnits="userSpaceOnUse" x="-1" y="0" width="37" height="37">
<rect x="-0.21582" y="0.621704" width="36" height="36" fill="#D9D9D9"/>
</mask>
<g mask="url(#mask0_2_2285)">
<path d="M11.8562 22.6622C10.4895 22.6622 9.19787 22.3997 7.9812 21.8747C6.76453 21.3497 5.70203 20.6331 4.7937 19.7247C3.88537 18.8164 3.1687 17.7539 2.6437 16.5372C2.1187 15.3206 1.8562 14.0289 1.8562 12.6622C1.8562 11.2789 2.1187 9.98307 2.6437 8.77473C3.1687 7.5664 3.88537 6.50806 4.7937 5.59973C5.70203 4.6914 6.76453 3.97473 7.9812 3.44973C9.19787 2.92473 10.4895 2.66223 11.8562 2.66223C13.2395 2.66223 14.5354 2.92473 15.7437 3.44973C16.952 3.97473 18.0104 4.6914 18.9187 5.59973C19.827 6.50806 20.5437 7.5664 21.0687 8.77473C21.5937 9.98307 21.8562 11.2789 21.8562 12.6622C21.8562 14.0289 21.5937 15.3206 21.0687 16.5372C20.5437 17.7539 19.827 18.8164 18.9187 19.7247C18.0104 20.6331 16.952 21.3497 15.7437 21.8747C14.5354 22.3997 13.2395 22.6622 11.8562 22.6622ZM11.8562 20.6122C12.2895 20.0122 12.6645 19.3872 12.9812 18.7372C13.2979 18.0872 13.5562 17.3956 13.7562 16.6622H9.9562C10.1562 17.3956 10.4145 18.0872 10.7312 18.7372C11.0479 19.3872 11.4229 20.0122 11.8562 20.6122ZM9.2562 20.2122C8.9562 19.6622 8.6937 19.0914 8.4687 18.4997C8.2437 17.9081 8.0562 17.2956 7.9062 16.6622H4.9562C5.43953 17.4956 6.0437 18.2206 6.7687 18.8372C7.4937 19.4539 8.32287 19.9122 9.2562 20.2122ZM14.4562 20.2122C15.3895 19.9122 16.2187 19.4539 16.9437 18.8372C17.6687 18.2206 18.2729 17.4956 18.7562 16.6622H15.8062C15.6562 17.2956 15.4687 17.9081 15.2437 18.4997C15.0187 19.0914 14.7562 19.6622 14.4562 20.2122ZM4.1062 14.6622H7.5062C7.4562 14.3289 7.4187 13.9997 7.3937 13.6747C7.3687 13.3497 7.3562 13.0122 7.3562 12.6622C7.3562 12.3122 7.3687 11.9747 7.3937 11.6497C7.4187 11.3247 7.4562 10.9956 7.5062 10.6622H4.1062C4.02287 10.9956 3.96037 11.3247 3.9187 11.6497C3.87703 11.9747 3.8562 12.3122 3.8562 12.6622C3.8562 13.0122 3.87703 13.3497 3.9187 13.6747C3.96037 13.9997 4.02287 14.3289 4.1062 14.6622ZM9.5062 14.6622H14.2062C14.2562 14.3289 14.2937 13.9997 14.3187 13.6747C14.3437 13.3497 14.3562 13.0122 14.3562 12.6622C14.3562 12.3122 14.3437 11.9747 14.3187 11.6497C14.2937 11.3247 14.2562 10.9956 14.2062 10.6622H9.5062C9.4562 10.9956 9.4187 11.3247 9.3937 11.6497C9.3687 11.9747 9.3562 12.3122 9.3562 12.6622C9.3562 13.0122 9.3687 13.3497 9.3937 13.6747C9.4187 13.9997 9.4562 14.3289 9.5062 14.6622ZM16.2062 14.6622H19.6062C19.6895 14.3289 19.752 13.9997 19.7937 13.6747C19.8354 13.3497 19.8562 13.0122 19.8562 12.6622C19.8562 12.3122 19.8354 11.9747 19.7937 11.6497C19.752 11.3247 19.6895 10.9956 19.6062 10.6622H16.2062C16.2562 10.9956 16.2937 11.3247 16.3187 11.6497C16.3437 11.9747 16.3562 12.3122 16.3562 12.6622C16.3562 13.0122 16.3437 13.3497 16.3187 13.6747C16.2937 13.9997 16.2562 14.3289 16.2062 14.6622ZM15.8062 8.66223H18.7562C18.2729 7.8289 17.6687 7.1039 16.9437 6.48723C16.2187 5.87056 15.3895 5.41223 14.4562 5.11223C14.7562 5.66223 15.0187 6.23306 15.2437 6.82473C15.4687 7.4164 15.6562 8.0289 15.8062 8.66223ZM9.9562 8.66223H13.7562C13.5562 7.9289 13.2979 7.23723 12.9812 6.58723C12.6645 5.93723 12.2895 5.31223 11.8562 4.71223C11.4229 5.31223 11.0479 5.93723 10.7312 6.58723C10.4145 7.23723 10.1562 7.9289 9.9562 8.66223ZM4.9562 8.66223H7.9062C8.0562 8.0289 8.2437 7.4164 8.4687 6.82473C8.6937 6.23306 8.9562 5.66223 9.2562 5.11223C8.32287 5.41223 7.4937 5.87056 6.7687 6.48723C6.0437 7.1039 5.43953 7.8289 4.9562 8.66223Z" fill="white"/>
</g>
</g>
<defs>
<clipPath id="clip0_2_2285">
<rect width="24" height="24" fill="white" transform="translate(0 0.743286)"/>
</clipPath>
</defs>
</svg>
