<svg width="25" height="24" viewBox="0 0 25 24" fill="none" xmlns="http://www.w3.org/2000/svg">
<g clip-path="url(#clip0_2_2583)">
<mask id="mask0_2_2583" style="mask-type:alpha" maskUnits="userSpaceOnUse" x="0" y="-1" width="37" height="37">
<rect x="0.28418" y="-0.121582" width="36" height="36" fill="#D9D9D9"/>
</mask>
<g mask="url(#mask0_2_2583)">
<path d="M12.3561 21.9189C10.9895 21.9189 9.69781 21.6564 8.48114 21.1314C7.26447 20.6064 6.20197 19.8898 5.29364 18.9814C4.38531 18.0731 3.66864 17.0106 3.14364 15.7939C2.61864 14.5773 2.35614 13.2856 2.35614 11.9189C2.35614 10.5356 2.61864 9.23978 3.14364 8.03145C3.66864 6.82311 4.38531 5.76478 5.29364 4.85645C6.20197 3.94811 7.26447 3.23145 8.48114 2.70645C9.69781 2.18145 10.9895 1.91895 12.3561 1.91895C13.7395 1.91895 15.0353 2.18145 16.2436 2.70645C17.452 3.23145 18.5103 3.94811 19.4186 4.85645C20.327 5.76478 21.0436 6.82311 21.5686 8.03145C22.0936 9.23978 22.3561 10.5356 22.3561 11.9189C22.3561 13.2856 22.0936 14.5773 21.5686 15.7939C21.0436 17.0106 20.327 18.0731 19.4186 18.9814C18.5103 19.8898 17.452 20.6064 16.2436 21.1314C15.0353 21.6564 13.7395 21.9189 12.3561 21.9189ZM12.3561 19.8689C12.7895 19.2689 13.1645 18.6439 13.4811 17.9939C13.7978 17.3439 14.0561 16.6523 14.2561 15.9189H10.4561C10.6561 16.6523 10.9145 17.3439 11.2311 17.9939C11.5478 18.6439 11.9228 19.2689 12.3561 19.8689ZM9.75614 19.4689C9.45614 18.9189 9.19364 18.3481 8.96864 17.7564C8.74364 17.1648 8.55614 16.5523 8.40614 15.9189H5.45614C5.93947 16.7523 6.54364 17.4773 7.26864 18.0939C7.99364 18.7106 8.82281 19.1689 9.75614 19.4689ZM14.9561 19.4689C15.8895 19.1689 16.7186 18.7106 17.4436 18.0939C18.1686 17.4773 18.7728 16.7523 19.2561 15.9189H16.3061C16.1561 16.5523 15.9686 17.1648 15.7436 17.7564C15.5186 18.3481 15.2561 18.9189 14.9561 19.4689ZM4.60614 13.9189H8.00614C7.95614 13.5856 7.91864 13.2564 7.89364 12.9314C7.86864 12.6064 7.85614 12.2689 7.85614 11.9189C7.85614 11.5689 7.86864 11.2314 7.89364 10.9064C7.91864 10.5814 7.95614 10.2523 8.00614 9.91895H4.60614C4.52281 10.2523 4.46031 10.5814 4.41864 10.9064C4.37697 11.2314 4.35614 11.5689 4.35614 11.9189C4.35614 12.2689 4.37697 12.6064 4.41864 12.9314C4.46031 13.2564 4.52281 13.5856 4.60614 13.9189ZM10.0061 13.9189H14.7061C14.7561 13.5856 14.7936 13.2564 14.8186 12.9314C14.8436 12.6064 14.8561 12.2689 14.8561 11.9189C14.8561 11.5689 14.8436 11.2314 14.8186 10.9064C14.7936 10.5814 14.7561 10.2523 14.7061 9.91895H10.0061C9.95614 10.2523 9.91864 10.5814 9.89364 10.9064C9.86864 11.2314 9.85614 11.5689 9.85614 11.9189C9.85614 12.2689 9.86864 12.6064 9.89364 12.9314C9.91864 13.2564 9.95614 13.5856 10.0061 13.9189ZM16.7061 13.9189H20.1061C20.1895 13.5856 20.252 13.2564 20.2936 12.9314C20.3353 12.6064 20.3561 12.2689 20.3561 11.9189C20.3561 11.5689 20.3353 11.2314 20.2936 10.9064C20.252 10.5814 20.1895 10.2523 20.1061 9.91895H16.7061C16.7561 10.2523 16.7936 10.5814 16.8186 10.9064C16.8436 11.2314 16.8561 11.5689 16.8561 11.9189C16.8561 12.2689 16.8436 12.6064 16.8186 12.9314C16.7936 13.2564 16.7561 13.5856 16.7061 13.9189ZM16.3061 7.91895H19.2561C18.7728 7.08561 18.1686 6.36061 17.4436 5.74395C16.7186 5.12728 15.8895 4.66895 14.9561 4.36895C15.2561 4.91895 15.5186 5.48978 15.7436 6.08145C15.9686 6.67311 16.1561 7.28561 16.3061 7.91895ZM10.4561 7.91895H14.2561C14.0561 7.18561 13.7978 6.49395 13.4811 5.84395C13.1645 5.19395 12.7895 4.56895 12.3561 3.96895C11.9228 4.56895 11.5478 5.19395 11.2311 5.84395C10.9145 6.49395 10.6561 7.18561 10.4561 7.91895ZM5.45614 7.91895H8.40614C8.55614 7.28561 8.74364 6.67311 8.96864 6.08145C9.19364 5.48978 9.45614 4.91895 9.75614 4.36895C8.82281 4.66895 7.99364 5.12728 7.26864 5.74395C6.54364 6.36061 5.93947 7.08561 5.45614 7.91895Z" fill="#344054"/>
</g>
</g>
<defs>
<clipPath id="clip0_2_2583">
<rect width="24" height="24" fill="white" transform="translate(0.5)"/>
</clipPath>
</defs>
</svg>
